<?xml version="1.0" standalone="no"?><!DOCTYPE svg PUBLIC "-//W3C//DTD SVG 1.1//EN" "http://www.w3.org/Graphics/SVG/1.1/DTD/svg11.dtd"><svg t="1502939481010" class="icon" style="" viewBox="0 0 3113 1024" version="1.1" xmlns="http://www.w3.org/2000/svg" p-id="1034" xmlns:xlink="http://www.w3.org/1999/xlink" width="194.5625" height="64"><defs><style type="text/css"></style></defs><path d="M3112.906814 476.052327l-339.310283 140.921746A121.156099 121.156099 0 0 0 2896.216752 695.670633a159.955333 159.955333 0 0 0 124.816404-73.206102l86.01717 58.564881a259.515632 259.515632 0 0 1-211.565635 113.103428 253.659143 253.659143 0 0 1-251.828991-253.659144c0-96.266024 61.127095-259.149601 240.848076-259.149601S3112.906814 476.052327 3112.906814 476.052327z m-129.20877-39.897326a117.495794 117.495794 0 0 0-109.809153-53.440454 132.869075 132.869075 0 0 0-121.156099 146.412204zM2481.870215 26.932891h113.469458v753.65682h-113.469458zM2302.515265 298.161499h105.050756v475.839663c0 121.522129-73.206102 249.632808-241.214106 249.632807A241.580137 241.580137 0 0 1 1941.609182 873.19543l96.266024-40.629387a139.823655 139.823655 0 0 0 132.503045 92.97175c117.495794 0 131.404953-107.61297 131.404953-144.582052v-51.610301A166.909913 166.909913 0 0 1 2161.227488 793.400779a249.632808 249.632808 0 0 1-239.749984-256.221357 248.168686 248.168686 0 0 1 241.214106-256.221357 168.740065 168.740065 0 0 1 140.555716 63.323278zM2170.01222 695.670633A148.974418 148.974418 0 0 0 2307.639692 539.375605a139.823655 139.823655 0 1 0-277.085096 0A148.974418 148.974418 0 0 0 2170.01222 695.670633zM1619.136303 794.13284a256.221357 256.221357 0 1 1 256.221357-256.221357 256.221357 256.221357 0 0 1-256.221357 256.221357z m0-100.65839a150.072509 150.072509 0 0 0 143.48396-155.562967 143.84999 143.84999 0 1 0-286.96792 0 150.072509 150.072509 0 0 0 141.653807 155.562967zM1063.135958 794.13284a256.221357 256.221357 0 1 1 256.221357-256.221357 256.221357 256.221357 0 0 1-256.221357 256.221357z m0-100.65839a150.072509 150.072509 0 0 0 143.48396-155.562967A150.072509 150.072509 0 0 0 1063.135958 381.982486a150.072509 150.072509 0 0 0-143.48396 155.562966A150.072509 150.072509 0 0 0 1063.135958 693.47445zM767.749337 366.243174v-4.392366h-366.03051v107.246939h262.443875c-24.524044 146.412204-126.646556 214.493879-263.541967 214.493879A286.784905 286.784905 0 0 1 400.620735 110.021817a266.836242 266.836242 0 0 1 195.460293 76.500376L672.947435 110.021817a370.422876 370.422876 0 0 0-275.987005-109.809153 396.960088 396.960088 0 0 0 0 793.920176c222.54655 1.830153 407.757988-155.196936 370.788907-427.889666z" p-id="1035" fill="#ffffff"></path></svg>